<svg xmlns="http://www.w3.org/2000/svg" xmlns:xlink="http://www.w3.org/1999/xlink" version="1.1" id="Layer_1" x="0px" y="0px" width="195.57400512695312px" height="96.74400329589844px" viewBox="0 0 195.574 96.744" enable-background="new 0 0 195.574 96.744" xml:space="preserve" ><rect id="svgEditorBackground" x="0" y="0" width="195.57400512695312" height="96.74400329589844" style="fill:none;stroke:none;"/>
<g>
	<g>
		<g id="A_1_">
			<path fill="#141414" d="M23.688,0c13.1,0,23.705,10.606,23.705,23.682c0,13.077-10.605,23.682-23.705,23.682     C10.606,47.364,0,36.759,0,23.682C0,10.606,10.606,0,23.688,0z"/>
		</g>
		<g enable-background="new    ">
			<path d="M32.448,38.835l-2.7779999999999987,-7.663h-12.128l-2.6449999999999996,7.663h-5.481000000000002l11.466999999999999,-30.309h5.583000000000002l11.512,30.309h-5.530000000000001ZM23.658,13.079h-0.12900000000000134c-0.10699999999999932,0.8469999999999995,-0.23799999999999955,1.577,-0.4499999999999993,2.1739999999999995l-4.1370000000000005,11.679000000000002h9.293l-4.163,-11.679c-0.1319999999999979,-0.36600000000000144,-0.2829999999999977,-1.0900000000000016,-0.4139999999999979,-2.1740000000000013Z" style="fill:#018FA7;"/>
		</g>
	</g>
	<g>
		<g id="B_1_">
			<path fill="#141414" d="M73.084,0c13.096999999999994,0,23.703000000000003,10.61,23.703000000000003,23.687s-10.606000000000009,23.682,-23.703000000000003,23.682c-13.085,0,-23.689999999999998,-10.606000000000002,-23.689999999999998,-23.683s10.604999999999997,-23.686,23.689999999999998,-23.686Z"/>
		</g>
		<g enable-background="new    ">
			<path d="M83.288,30.01c0,2.6280000000000037,-0.9849999999999994,4.782999999999998,-2.924999999999997,6.385000000000002c-1.9569999999999936,1.6330000000000027,-4.469999999999999,2.4369999999999976,-7.5660000000000025,2.4369999999999976h-9.908000000000001v-30.302h9.572000000000003c2.897999999999996,0,5.194000000000003,0.6460000000000008,6.867000000000004,1.8840000000000003c1.6839999999999975,1.266,2.522999999999996,2.952,2.522999999999996,5.089c0,1.6460000000000008,-0.5040000000000049,3.096,-1.5,4.347999999999999c-1.0139999999999958,1.2800000000000011,-2.3220000000000027,2.1499999999999986,-3.956000000000003,2.6700000000000017v0.09100000000000108c2.1640000000000015,0.2740000000000009,3.8419999999999987,1.0749999999999993,5.069000000000003,2.372c1.198999999999998,1.3269999999999982,1.823999999999998,2.982999999999997,1.823999999999998,5.026ZM76.519,16.471c0,-1.205,-0.4539999999999935,-2.144,-1.3319999999999936,-2.795c-0.9069999999999965,-0.6490000000000009,-2.2240000000000038,-0.9730000000000008,-3.978999999999999,-0.9730000000000008h-3.277000000000001v8.383h3.2319999999999993c1.6929999999999978,0,3.021000000000001,-0.3999999999999986,3.9549999999999983,-1.2010000000000005c0.9259999999999877,-0.8009999999999984,1.4009999999999962,-1.9199999999999982,1.4009999999999962,-3.413999999999998ZM77.953,29.873c0,-1.4490000000000016,-0.5079999999999956,-2.585000000000001,-1.558000000000007,-3.408999999999999c-1.051000000000002,-0.8140000000000001,-2.594999999999999,-1.2059999999999995,-4.674000000000007,-1.2059999999999995h-3.7900000000000063v9.413000000000011h4.239000000000004c1.801000000000002,0,3.2120000000000033,-0.4380000000000095,4.236999999999995,-1.308000000000007c1.0440000000000111,-0.855000000000004,1.5460000000000207,-2.026000000000007,1.5460000000000207,-3.4900000000000055Z" style="fill:#018FA7;"/>
		</g>
	</g>
	<g>
		<g id="Y_1_">
			<path fill="#141414" d="M171.869,0c13.099999999999994,0,23.705000000000013,10.614,23.705000000000013,23.69c0,13.077000000000002,-10.60499999999999,23.682,-23.704999999999984,23.682c-13.081999999999994,0,-23.687999999999988,-10.605000000000004,-23.687999999999988,-23.682c-2.842170943040401e-14,-13.076,10.605999999999966,-23.69,23.68799999999996,-23.69Z"/>
		</g>
		<g enable-background="new    ">
			<path d="M174.266,27.847v10.987000000000002h-4.996999999999986v-10.864000000000004l-9.847000000000008,-19.436h5.721000000000004l6.094999999999999,12.646c0.21299999999999386,0.41100000000000136,0.33899999999999864,0.7830000000000013,0.4379999999999882,1.1209999999999987c0.09899999999998954,0.3359999999999985,0.17599999999998772,0.6099999999999994,0.2560000000000002,0.8249999999999993h0.044999999999987494c0.15100000000001046,-0.6419999999999995,0.37299999999999045,-1.2749999999999986,0.6949999999999932,-1.9029999999999987l6.3230000000000075,-12.689h5.318999999999988l-10.047999999999973,19.313000000000002Z" style="fill:#018FA7;"/>
		</g>
	</g>
	<g>
		<g id="X_1_">
			<path fill="#141414" d="M122.47,0c13.105,0,23.711,10.61,23.711,23.687s-10.605,23.683-23.711,23.683     c-13.076,0-23.683-10.606-23.683-23.683S109.394,0,122.47,0z"/>
		</g>
		<g enable-background="new    ">
			<path d="M129.59,38.831l-6.406000000000006,-11.018999999999998c-0.132000000000005,-0.28800000000000026,-0.24200000000000443,-0.532,-0.3089999999999975,-0.7630000000000017c-0.049000000000006594,-0.2579999999999991,-0.12099999999999511,-0.5019999999999989,-0.2120000000000033,-0.7630000000000017h-0.09199999999999875c-0.11599999999999966,0.2749999999999986,-0.18999999999999773,0.5229999999999997,-0.2669999999999959,0.7749999999999986c-0.07699999999999818,0.2220000000000013,-0.1869999999999976,0.46199999999999974,-0.3359999999999985,0.75l-6.522999999999996,11.018999999999998h-6.123000000000005l10.137,-15.188999999999997l-9.259,-15.111000000000002h6.185999999999993l5.400999999999996,9.954000000000002c0.5190000000000055,0.8850000000000016,0.8610000000000042,1.6400000000000006,1.0480000000000018,2.2659999999999982h0.07299999999999329c0.3050000000000068,-0.7929999999999993,0.5370000000000061,-1.311,0.6569999999999965,-1.5599999999999987c0.10899999999999466,-0.23699999999999832,2.209000000000003,-3.7970000000000006,6.269999999999996,-10.66h5.674000000000007l-9.459000000000003,15.02l9.580999999999989,15.281000000000002h-6.040999999999968Z" style="fill:#018FA7;"/>
		</g>
	</g>
</g>
<g>
	<g>
		<g id="A_2_">
			<path fill="#FFFFFF" d="M23.688,49.376c13.1,0,23.705,10.606,23.705,23.682c0,13.077-10.605,23.682-23.705,23.682     C10.606,96.74,0,86.135,0,73.058C0,59.982,10.606,49.376,23.688,49.376z"/>
		</g>
		<g enable-background="new    ">
			<path d="M32.448,88.211l-2.7779999999999987,-7.662999999999997h-12.128l-2.6449999999999996,7.662999999999997h-5.481000000000002l11.467000000000002,-30.308999999999997h5.582999999999998l11.512,30.308999999999997h-5.530000000000001ZM23.658,62.455h-0.12900000000000134c-0.10699999999999932,0.8470000000000013,-0.23799999999999955,1.5769999999999982,-0.4499999999999993,2.1740000000000066l-4.1370000000000005,11.679000000000002h9.293l-4.163,-11.679000000000002c-0.1319999999999979,-0.36599999999999966,-0.2829999999999977,-1.0900000000000034,-0.4139999999999979,-2.1740000000000066Z" style="fill:#FE7058;"/>
		</g>
	</g>
	<g>
		<g id="B_2_">
			<path fill="#FFFFFF" d="M73.084,49.374c13.097,0,23.703,10.61,23.703,23.687S86.181,96.743,73.084,96.743     c-13.085,0-23.69-10.606-23.69-23.683S59.999,49.374,73.084,49.374z"/>
		</g>
		<g enable-background="new    ">
			<path d="M83.288,79.383c0,2.628,-0.9849999999999994,4.783000000000001,-2.924999999999997,6.385000000000005c-1.9569999999999936,1.6329999999999956,-4.469999999999999,2.4369999999999976,-7.5660000000000025,2.4369999999999976h-9.908000000000001v-30.300999999999995h9.572000000000003c2.897999999999996,0,5.194000000000003,0.6460000000000008,6.867000000000004,1.8840000000000003c1.6839999999999975,1.2659999999999982,2.522999999999996,2.951999999999998,2.522999999999996,5.089000000000006c0,1.6460000000000008,-0.5040000000000049,3.0960000000000036,-1.5,4.347999999999999c-1.0139999999999958,1.2800000000000011,-2.3220000000000027,2.1500000000000057,-3.956000000000003,2.6700000000000017v0.09099999999999397c2.1640000000000015,0.2740000000000009,3.8419999999999987,1.0750000000000028,5.069000000000003,2.372c1.198999999999998,1.3259999999999934,1.823999999999998,2.9819999999999993,1.823999999999998,5.0249999999999915ZM76.519,65.844c0,-1.2049999999999983,-0.4539999999999935,-2.1439999999999984,-1.3319999999999936,-2.7950000000000017c-0.9069999999999965,-0.6490000000000009,-2.2240000000000038,-0.972999999999999,-3.978999999999999,-0.972999999999999h-3.277000000000001v8.382999999999996h3.2319999999999993c1.6929999999999978,0,3.021000000000001,-0.4000000000000057,3.9549999999999983,-1.2009999999999934c0.9259999999999877,-0.7999999999999972,1.4009999999999962,-1.9200000000000017,1.4009999999999962,-3.4140000000000015ZM77.953,79.247c0,-1.448999999999998,-0.5079999999999956,-2.5849999999999937,-1.558000000000007,-3.409000000000006c-1.051000000000002,-0.813999999999993,-2.594999999999999,-1.206000000000003,-4.674000000000007,-1.206000000000003h-3.7900000000000063v9.412999999999997h4.239000000000004c1.801000000000002,0,3.2120000000000033,-0.4380000000000024,4.236999999999995,-1.308000000000007c1.0440000000000111,-0.8559999999999803,1.5460000000000207,-2.026999999999987,1.5460000000000207,-3.4899999999999807Z" style="fill:#FE7058;"/>
		</g>
	</g>
	<g>
		<g id="Y_2_">
			<path fill="#FFFFFF" d="M171.869,49.372c13.099999999999994,0,23.705000000000013,10.614000000000004,23.705000000000013,23.689999999999998c0,13.076999999999998,-10.60499999999999,23.682000000000002,-23.704999999999984,23.682000000000002c-13.081999999999994,0,-23.687999999999988,-10.605000000000004,-23.687999999999988,-23.682000000000002c-2.842170943040401e-14,-13.076,10.605999999999966,-23.689999999999998,23.68799999999996,-23.689999999999998Z"/>
		</g>
		<g enable-background="new    ">
			<path d="M174.266,77.219v10.986999999999995h-4.996999999999986v-10.86399999999999l-9.847000000000008,-19.436h5.721000000000004l6.094999999999999,12.645999999999994c0.21299999999999386,0.41100000000000136,0.33899999999999864,0.7830000000000013,0.4379999999999882,1.1209999999999951c0.09899999999998954,0.3359999999999985,0.17599999999998772,0.6099999999999994,0.2560000000000002,0.8250000000000028h0.044999999999987494c0.15100000000001046,-0.6419999999999959,0.37299999999999045,-1.2750000000000057,0.6949999999999932,-1.9030000000000058l6.3230000000000075,-12.689h5.318999999999988l-10.047999999999973,19.31300000000001Z" style="fill:#FE7058;"/>
		</g>
	</g>
	<g>
		<g id="X_2_">
			<path fill="#FFFFFF" d="M122.47,49.374c13.105,0,23.711,10.61,23.711,23.687s-10.605,23.683-23.711,23.683     c-13.076,0-23.683-10.606-23.683-23.683S109.394,49.374,122.47,49.374z"/>
		</g>
		<g enable-background="new    ">
			<path d="M129.59,88.205l-6.406000000000006,-11.019000000000005c-0.132000000000005,-0.2879999999999967,-0.24200000000000443,-0.5319999999999965,-0.3089999999999975,-0.7630000000000052c-0.049000000000006594,-0.25799999999999557,-0.12099999999999511,-0.5019999999999953,-0.2120000000000033,-0.7630000000000052h-0.09199999999999875c-0.11599999999999966,0.2750000000000057,-0.18999999999999773,0.5229999999999961,-0.2669999999999959,0.7750000000000057c-0.07699999999999818,0.2219999999999942,-0.1869999999999976,0.4620000000000033,-0.3359999999999985,0.75l-6.522999999999996,11.019000000000005h-6.123000000000005l10.137,-15.189000000000007l-9.260000000000005,-15.111000000000004h6.185999999999993l5.400999999999996,9.953999999999994c0.5190000000000055,0.8850000000000051,0.8610000000000042,1.6400000000000006,1.0480000000000018,2.2660000000000053h0.07299999999999329c0.3050000000000068,-0.7930000000000064,0.5370000000000061,-1.3109999999999928,0.6569999999999965,-1.5600000000000023c0.10899999999999466,-0.23699999999999477,2.209000000000003,-3.796999999999997,6.269999999999996,-10.659999999999997h5.674000000000007l-9.459000000000003,15.019999999999996l9.580999999999989,15.281000000000006h-6.039999999999964Z" style="fill:#FE7058;"/>
		</g>
	</g>
</g>
<g>
</g>
<g>
</g>
<g>
</g>
<g>
</g>
<g>
</g>
<g>
</g>
<g>
</g>
<g>
</g>
<g>
</g>
<g>
</g>
<g>
</g>
<g>
</g>
<g>
</g>
<g>
</g>
<g>
</g>
</svg>