<svg xmlns="http://www.w3.org/2000/svg" xmlns:xlink="http://www.w3.org/1999/xlink" version="1.1" id="Layer_1" x="0px" y="0px" width="67.40899658203125px" height="33.20600128173828px" viewBox="0 -0.00735019 67.409 33.2207" enable-background="new 0 0 67.409 33.206" xml:space="preserve" preserveAspectRatio="xMidYMid meet" ><rect id="svgEditorBackground" x="0" y="0" width="67.40899658203125" height="33.20600128173828" style="fill:none;stroke:none;"/>
<g id="Menu_Pressed">
	<path fill="#F5F5F5" stroke="#FFFFFF" stroke-miterlimit="10" d="M66.909,16.603c0,8.902999999999999,-7.228999999999999,16.103,-16.102000000000004,16.103c-8.900999999999996,0,-16.102000000000004,-7.199999999999999,-16.102000000000004,-16.103c0,-8.896,7.200000000000003,-16.103,16.102000000000004,-16.103c8.873999999999995,0,16.102000000000004,7.207,16.102000000000004,16.103Z"/>
	<g>
		<rect x="43.612009212118984" y="11.978001016536481" width="14.361" height="1.552" style="fill:#fe7058;"/>
		<rect x="43.612" y="15.896" width="14.361" height="1.552" style="fill:#fe7058;"/>
		<rect x="43.612" y="19.706" width="14.361" height="1.532" style="fill:#fe7058;"/>
	</g>
</g>
<g id="Switcher_PRessed">
	<path fill="#F5F5F5" stroke="#FFFFFF" stroke-miterlimit="10" d="M32.706,16.603c0,8.902999999999999,-7.2010000000000005,16.103,-16.103,16.103c-8.872,0,-16.103,-7.199999999999999,-16.103,-16.103c0,-8.896,7.231,-16.103,16.103,-16.103c8.901999999999997,0,16.103,7.207,16.103,16.103Z"/>
	<g>
		<polygon points="14.087,16.502 11.056,16.502 11.056,12.718 16.528,12.718 16.528,14.039 18.328,14.039     18.328,10.979 9.437,10.979 9.437,18.369 14.087,18.369   " style="fill:#FE7058;"/>
		<path d="M14.837,14.663v7.584h8.96v-7.584h-8.96ZM21.998000000000005,20.447h-5.469999999999999v-3.9450000000000003h5.469999999999999v3.9450000000000003Z" style="fill:#FE7058;"/>
	</g>
</g>
<g>
</g>
<g>
</g>
<g>
</g>
<g>
</g>
<g>
</g>
<g>
</g>
<g>
</g>
<g>
</g>
<g>
</g>
<g>
</g>
<g>
</g>
<g>
</g>
<g>
</g>
<g>
</g>
<g>
</g>
</svg>